<?xml version="1.0" encoding="UTF-8" standalone="no"?>
<!DOCTYPE svg PUBLIC "-//W3C//DTD SVG 1.1//EN"
 "http://www.w3.org/Graphics/SVG/1.1/DTD/svg11.dtd">
<!-- Generated by graphviz version 2.43.0 (0)
 -->
<!-- Title: linkcheck.checker classes Pages: 1 -->
<svg width="893pt" height="191pt"
 viewBox="0.00 0.00 892.50 191.00" xmlns="http://www.w3.org/2000/svg" xmlns:xlink="http://www.w3.org/1999/xlink">
<g id="graph0" class="graph" transform="scale(1 1) rotate(0) translate(4 187)">
<title>linkcheck.checker classes</title>
<polygon fill="white" stroke="transparent" points="-4,4 -4,-187 888.5,-187 888.5,4 -4,4"/>
<!-- 1 -->
<g id="node1" class="node">
<title>1</title>
<g id="a_node1"><a xlink:href="../code/linkcheck/linkcheck.checker.dnsurl.html" xlink:title="DnsUrl" target="_blank">
<polygon fill="none" stroke="black" points="0,-73.5 0,-109.5 68,-109.5 68,-73.5 0,-73.5"/>
<text text-anchor="middle" x="34" y="-87.8" font-family="Times,serif" font-size="14.00">DnsUrl</text>
</a>
</g>
</g>
<!-- 12 -->
<g id="node12" class="node">
<title>12</title>
<g id="a_node12"><a xlink:href="../code/linkcheck/linkcheck.checker.urlbase.html" xlink:title="UrlBase" target="_blank">
<polygon fill="none" stroke="black" points="420,-146.5 420,-182.5 494,-182.5 494,-146.5 420,-146.5"/>
<text text-anchor="middle" x="457" y="-160.8" font-family="Times,serif" font-size="14.00">UrlBase</text>
</a>
</g>
</g>
<!-- 1&#45;&gt;12 -->
<g id="edge1" class="edge">
<title>1&#45;&gt;12</title>
<path fill="none" stroke="black" d="M68.01,-107.22C71.02,-108.26 74.04,-109.2 77,-110 194.26,-141.59 337.2,-155.32 409.79,-160.61"/>
<polygon fill="none" stroke="black" points="409.76,-164.11 419.98,-161.33 410.25,-157.13 409.76,-164.11"/>
</g>
<!-- 2 -->
<g id="node2" class="node">
<title>2</title>
<g id="a_node2"><a xlink:href="../code/linkcheck/linkcheck.checker.fileurl.html" xlink:title="FileUrl" target="_blank">
<polygon fill="none" stroke="black" points="86.5,-73.5 86.5,-109.5 153.5,-109.5 153.5,-73.5 86.5,-73.5"/>
<text text-anchor="middle" x="120" y="-87.8" font-family="Times,serif" font-size="14.00">FileUrl</text>
</a>
</g>
</g>
<!-- 2&#45;&gt;12 -->
<g id="edge2" class="edge">
<title>2&#45;&gt;12</title>
<path fill="none" stroke="black" d="M153.7,-107.27C156.48,-108.27 159.27,-109.19 162,-110 247.47,-135.24 350.58,-150.65 409.49,-158.09"/>
<polygon fill="none" stroke="black" points="409.26,-161.58 419.61,-159.34 410.12,-154.64 409.26,-161.58"/>
</g>
<!-- 3 -->
<g id="node3" class="node">
<title>3</title>
<g id="a_node3"><a xlink:href="../code/linkcheck/linkcheck.checker.ftpurl.html" xlink:title="FtpUrl" target="_blank">
<polygon fill="none" stroke="black" points="163.5,-0.5 163.5,-36.5 228.5,-36.5 228.5,-0.5 163.5,-0.5"/>
<text text-anchor="middle" x="196" y="-14.8" font-family="Times,serif" font-size="14.00">FtpUrl</text>
</a>
</g>
</g>
<!-- 6 -->
<g id="node6" class="node">
<title>6</title>
<g id="a_node6"><a xlink:href="../code/linkcheck/linkcheck.checker.internpaturl.html" xlink:title="InternPatternUrl" target="_blank">
<polygon fill="none" stroke="black" points="171.5,-73.5 171.5,-109.5 308.5,-109.5 308.5,-73.5 171.5,-73.5"/>
<text text-anchor="middle" x="240" y="-87.8" font-family="Times,serif" font-size="14.00">InternPatternUrl</text>
</a>
</g>
</g>
<!-- 3&#45;&gt;6 -->
<g id="edge3" class="edge">
<title>3&#45;&gt;6</title>
<path fill="none" stroke="black" d="M206.65,-36.69C211.89,-45.15 218.32,-55.52 224.13,-64.89"/>
<polygon fill="none" stroke="black" points="221.2,-66.81 229.45,-73.47 227.15,-63.13 221.2,-66.81"/>
</g>
<!-- 4 -->
<g id="node4" class="node">
<title>4</title>
<g id="a_node4"><a xlink:href="../code/linkcheck/linkcheck.checker.httpurl.html" xlink:title="HttpUrl" target="_blank">
<polygon fill="none" stroke="black" points="246.5,-0.5 246.5,-36.5 319.5,-36.5 319.5,-0.5 246.5,-0.5"/>
<text text-anchor="middle" x="283" y="-14.8" font-family="Times,serif" font-size="14.00">HttpUrl</text>
</a>
</g>
</g>
<!-- 4&#45;&gt;6 -->
<g id="edge4" class="edge">
<title>4&#45;&gt;6</title>
<path fill="none" stroke="black" d="M272.59,-36.69C267.47,-45.15 261.19,-55.52 255.51,-64.89"/>
<polygon fill="none" stroke="black" points="252.5,-63.1 250.31,-73.47 258.49,-66.73 252.5,-63.1"/>
</g>
<!-- 5 -->
<g id="node5" class="node">
<title>5</title>
<g id="a_node5"><a xlink:href="../code/linkcheck/linkcheck.checker.ignoreurl.html" xlink:title="IgnoreUrl" target="_blank">
<polygon fill="none" stroke="black" points="788,-0.5 788,-36.5 874,-36.5 874,-0.5 788,-0.5"/>
<text text-anchor="middle" x="831" y="-14.8" font-family="Times,serif" font-size="14.00">IgnoreUrl</text>
</a>
</g>
</g>
<!-- 11 -->
<g id="node11" class="node">
<title>11</title>
<g id="a_node11"><a xlink:href="../code/linkcheck/linkcheck.checker.unknownurl.html" xlink:title="UnknownUrl" target="_blank">
<polygon fill="none" stroke="black" points="777.5,-73.5 777.5,-109.5 884.5,-109.5 884.5,-73.5 777.5,-73.5"/>
<text text-anchor="middle" x="831" y="-87.8" font-family="Times,serif" font-size="14.00">UnknownUrl</text>
</a>
</g>
</g>
<!-- 5&#45;&gt;11 -->
<g id="edge5" class="edge">
<title>5&#45;&gt;11</title>
<path fill="none" stroke="black" d="M831,-36.69C831,-44.71 831,-54.45 831,-63.43"/>
<polygon fill="none" stroke="black" points="827.5,-63.47 831,-73.47 834.5,-63.47 827.5,-63.47"/>
</g>
<!-- 6&#45;&gt;12 -->
<g id="edge6" class="edge">
<title>6&#45;&gt;12</title>
<path fill="none" stroke="black" d="M291.98,-109.51C327.81,-121.23 375.06,-136.69 409.81,-148.06"/>
<polygon fill="none" stroke="black" points="409.12,-151.52 419.71,-151.3 411.3,-144.86 409.12,-151.52"/>
</g>
<!-- 7 -->
<g id="node7" class="node">
<title>7</title>
<g id="a_node7"><a xlink:href="../code/linkcheck/linkcheck.checker.itmsservicesurl.html" xlink:title="ItmsServicesUrl" target="_blank">
<polygon fill="none" stroke="black" points="326.5,-73.5 326.5,-109.5 459.5,-109.5 459.5,-73.5 326.5,-73.5"/>
<text text-anchor="middle" x="393" y="-87.8" font-family="Times,serif" font-size="14.00">ItmsServicesUrl</text>
</a>
</g>
</g>
<!-- 7&#45;&gt;12 -->
<g id="edge7" class="edge">
<title>7&#45;&gt;12</title>
<path fill="none" stroke="black" d="M408.49,-109.69C416.43,-118.5 426.24,-129.37 434.95,-139.04"/>
<polygon fill="none" stroke="black" points="432.35,-141.39 441.65,-146.47 437.55,-136.7 432.35,-141.39"/>
</g>
<!-- 8 -->
<g id="node8" class="node">
<title>8</title>
<g id="a_node8"><a xlink:href="../code/linkcheck/linkcheck.checker.mailtourl.html" xlink:title="MailtoUrl" target="_blank">
<polygon fill="none" stroke="black" points="478,-73.5 478,-109.5 564,-109.5 564,-73.5 478,-73.5"/>
<text text-anchor="middle" x="521" y="-87.8" font-family="Times,serif" font-size="14.00">MailtoUrl</text>
</a>
</g>
</g>
<!-- 8&#45;&gt;12 -->
<g id="edge8" class="edge">
<title>8&#45;&gt;12</title>
<path fill="none" stroke="black" d="M505.51,-109.69C497.57,-118.5 487.76,-129.37 479.05,-139.04"/>
<polygon fill="none" stroke="black" points="476.45,-136.7 472.35,-146.47 481.65,-141.39 476.45,-136.7"/>
</g>
<!-- 9 -->
<g id="node9" class="node">
<title>9</title>
<g id="a_node9"><a xlink:href="../code/linkcheck/linkcheck.checker.nntpurl.html" xlink:title="NntpUrl" target="_blank">
<polygon fill="none" stroke="black" points="582,-73.5 582,-109.5 658,-109.5 658,-73.5 582,-73.5"/>
<text text-anchor="middle" x="620" y="-87.8" font-family="Times,serif" font-size="14.00">NntpUrl</text>
</a>
</g>
</g>
<!-- 9&#45;&gt;12 -->
<g id="edge9" class="edge">
<title>9&#45;&gt;12</title>
<path fill="none" stroke="black" d="M581.78,-109.15C558.34,-119.36 528.16,-132.5 503.35,-143.31"/>
<polygon fill="none" stroke="black" points="501.9,-140.12 494.13,-147.32 504.7,-146.54 501.9,-140.12"/>
</g>
<!-- 10 -->
<g id="node10" class="node">
<title>10</title>
<g id="a_node10"><a xlink:href="../code/linkcheck/linkcheck.checker.telneturl.html" xlink:title="TelnetUrl" target="_blank">
<polygon fill="none" stroke="black" points="676,-73.5 676,-109.5 760,-109.5 760,-73.5 676,-73.5"/>
<text text-anchor="middle" x="718" y="-87.8" font-family="Times,serif" font-size="14.00">TelnetUrl</text>
</a>
</g>
</g>
<!-- 10&#45;&gt;12 -->
<g id="edge10" class="edge">
<title>10&#45;&gt;12</title>
<path fill="none" stroke="black" d="M675.78,-107.28C672.82,-108.23 669.87,-109.14 667,-110 611.43,-126.58 546.64,-142.59 503.89,-152.71"/>
<polygon fill="none" stroke="black" points="502.98,-149.33 494.05,-155.02 504.58,-156.14 502.98,-149.33"/>
</g>
<!-- 11&#45;&gt;12 -->
<g id="edge11" class="edge">
<title>11&#45;&gt;12</title>
<path fill="none" stroke="black" d="M777.32,-108.03C774.51,-108.72 771.73,-109.38 769,-110 676.02,-131.03 565.79,-148.13 504.39,-156.96"/>
<polygon fill="none" stroke="black" points="503.64,-153.53 494.23,-158.41 504.62,-160.46 503.64,-153.53"/>
</g>
</g>
</svg>
